<?xml version="1.0" standalone="no"?>
<!DOCTYPE svg PUBLIC "-//W3C//DTD SVG 20010904//EN"
 "http://www.w3.org/TR/2001/REC-SVG-20010904/DTD/svg10.dtd">
<svg version="1.0" xmlns="http://www.w3.org/2000/svg"
 width="3116.000000pt" height="1004.000000pt" viewBox="0 0 3116.000000 1004.000000"
 preserveAspectRatio="xMidYMid meet">
<metadata>
Created by potrace 1.16, written by Peter Selinger 2001-2019
</metadata>
<g transform="translate(0.000000,1004.000000) scale(0.100000,-0.100000)"
fill="#000000" stroke="none">
<path d="M6640 8102 c-81 -55 -216 -152 -380 -273 -74 -55 -340 -248 -411
-298 -20 -14 -110 -78 -199 -141 -90 -63 -176 -127 -192 -142 l-28 -26 0
-2271 0 -2270 -37 -7 c-64 -12 -360 -10 -373 2 -8 8 -14 474 -21 1700 -5 928
-12 1691 -16 1695 -5 4 -152 9 -328 10 -342 2 -336 3 -401 -48 -16 -13 -60
-46 -99 -75 -74 -56 -76 -57 -115 -89 -14 -12 -45 -35 -70 -52 -40 -28 -86
-66 -126 -105 -12 -11 -14 -262 -14 -1512 0 -824 -4 -1501 -8 -1504 -5 -3 -49
-10 -98 -16 -184 -21 -281 -42 -311 -66 -68 -54 -11 -61 677 -74 678 -14 4414
-7 4583 9 68 6 117 15 133 25 36 24 32 74 -9 107 -1 1 -101 5 -222 8 l-220 6
-3 1350 c-1 742 -6 1353 -10 1357 -9 9 -1114 -11 -1124 -21 -4 -3 -9 -541 -13
-1196 -3 -655 -8 -1268 -11 -1364 l-6 -174 -142 7 c-77 4 -170 11 -206 14
l-65 7 -7 460 c-3 253 -12 1392 -19 2530 -6 1139 -14 2166 -18 2282 l-6 213
-85 -58z"/>
<path d="M14759 6943 c-2 -16 -3 -789 -1 -1719 l2 -1691 98 -28 c139 -40 205
-53 228 -44 13 4 37 41 62 93 23 47 48 86 55 86 7 0 21 -6 32 -13 24 -17 225
-96 315 -125 96 -31 179 -42 325 -42 261 0 471 53 645 162 62 39 179 144 221
197 19 25 39 50 44 56 18 19 34 48 80 140 53 107 75 174 106 321 22 100 24
133 24 394 0 232 -3 303 -18 380 -46 244 -110 379 -247 523 -151 159 -334 245
-595 277 -194 25 -433 -14 -598 -97 -48 -24 -123 -72 -246 -158 -40 -28 -68
-42 -74 -36 -12 12 -28 638 -25 972 1 135 -2 250 -5 256 -12 20 -354 123 -406
123 -13 0 -20 -8 -22 -27z m1305 -1434 c103 -19 283 -136 355 -232 93 -122
111 -205 111 -512 0 -351 -24 -499 -101 -620 -84 -134 -253 -247 -419 -281
-72 -14 -100 -15 -224 -5 -77 7 -157 16 -178 21 -61 17 -147 83 -273 210
l-120 120 -3 213 c-2 116 1 312 7 435 10 210 12 227 38 284 71 159 240 302
416 352 121 35 254 40 391 15z"/>
<path d="M25335 6550 c-390 -37 -796 -251 -1033 -543 -228 -282 -333 -605
-333 -1018 -1 -236 22 -378 92 -576 121 -343 366 -614 729 -807 119 -63 272
-111 419 -132 193 -26 635 -9 791 31 48 12 165 -94 380 -345 52 -61 113 -130
154 -175 10 -11 29 -35 43 -52 14 -18 30 -33 36 -33 20 0 359 316 398 372 18
25 19 30 5 56 -14 27 -127 156 -320 366 -50 54 -92 104 -94 111 -2 7 29 50 69
96 210 243 289 397 370 714 38 149 41 172 46 335 4 110 1 208 -6 264 -49 368
-206 677 -470 929 -319 303 -787 452 -1276 407z m398 -676 c155 -28 273 -91
379 -203 218 -228 318 -546 259 -826 -36 -176 -130 -393 -195 -454 -23 -22
-28 -23 -51 -11 -28 15 -120 110 -204 210 -76 91 -153 170 -166 170 -27 0
-395 -333 -395 -357 0 -9 19 -37 43 -62 113 -124 177 -206 177 -228 0 -19
-188 -17 -269 2 -128 31 -300 134 -415 249 -111 112 -201 273 -226 403 -12 70
-13 303 0 401 42 323 254 577 570 682 48 16 115 30 215 44 47 6 192 -4 278
-20z"/>
<path d="M9568 6523 c-22 -5 -22 -5 -8 -845 13 -757 27 -1156 45 -1281 32
-213 150 -460 289 -605 163 -171 364 -264 666 -308 153 -22 492 -30 631 -14
316 34 558 140 744 325 105 105 163 189 247 361 61 124 61 125 70 242 14 207
27 2116 14 2124 -6 4 -104 8 -217 8 l-207 0 -5 -417 c-12 -805 -27 -1459 -38
-1553 -13 -121 -39 -201 -103 -314 -90 -161 -220 -270 -390 -328 -221 -76
-584 -75 -782 1 -175 68 -343 224 -415 385 -44 101 -56 327 -70 1371 -8 608
-14 842 -23 847 -12 8 -419 9 -448 1z"/>
<path d="M22846 6521 c-4 -6 -9 -2670 -6 -3013 0 -17 23 -18 333 -18 l334 0 6
113 c9 150 7 2865 -2 2897 l-7 25 -326 3 c-184 1 -329 -2 -332 -7z"/>
<path d="M21290 5923 c-100 -7 -215 -23 -278 -39 -127 -31 -427 -191 -516
-276 -62 -59 -91 -46 -101 45 -11 93 -54 161 -124 197 -50 25 -181 42 -263 34
-80 -8 -74 15 -54 -211 16 -174 33 -786 44 -1628 l7 -550 204 -3 c114 -1 209
2 214 7 5 5 12 314 17 707 9 773 9 777 75 910 91 186 249 318 450 376 70 20
101 23 250 23 236 -1 292 -21 444 -154 35 -30 67 -67 73 -81 6 -15 13 -382 19
-895 5 -478 11 -876 14 -883 3 -10 51 -12 212 -10 l208 3 8 150 c10 193 0
1308 -14 1530 -19 300 -50 389 -181 517 -60 59 -99 86 -171 122 -107 53 -243
92 -354 100 -43 4 -91 8 -108 10 -16 1 -50 1 -75 -1z"/>
<path d="M18275 5914 c-120 -16 -187 -28 -230 -39 -74 -19 -261 -88 -337 -124
-37 -17 -70 -31 -74 -31 -14 0 -144 -85 -148 -97 -3 -7 -2 -23 3 -34 12 -34
194 -258 210 -258 7 -1 73 28 145 64 72 35 170 76 218 89 214 61 497 55 632
-14 158 -80 226 -219 212 -438 -3 -57 -8 -107 -11 -112 -5 -9 -72 -14 -395
-30 -377 -19 -525 -39 -695 -95 -183 -60 -311 -173 -394 -347 -53 -112 -74
-207 -74 -338 0 -103 3 -125 32 -210 73 -216 221 -353 445 -410 124 -31 329
-45 464 -30 287 30 443 93 586 234 11 12 38 34 59 50 30 23 40 26 52 16 8 -7
15 -22 15 -34 0 -40 31 -130 57 -164 13 -18 41 -44 61 -57 45 -29 167 -55 261
-55 68 0 71 1 86 30 10 19 15 58 15 118 0 92 -11 135 -48 182 -43 57 -57 192
-72 725 -22 806 -35 923 -120 1066 -66 111 -203 222 -338 273 -138 52 -225 67
-412 71 -96 2 -188 1 -205 -1z m640 -1431 c3 -27 1 -86 -4 -133 -16 -132 -43
-206 -105 -285 -137 -176 -349 -266 -596 -252 -208 12 -328 76 -388 207 -51
111 -21 323 55 390 102 90 271 115 795 119 l236 1 7 -47z"/>
<path d="M13874 5890 c-146 -42 -326 -156 -482 -304 -29 -28 -57 -52 -62 -54
-7 -3 -18 28 -57 163 -10 36 -70 122 -100 143 -15 11 -48 26 -73 32 -45 13
-283 20 -294 9 -3 -3 3 -32 15 -65 11 -32 24 -99 29 -149 12 -119 33 -1695 26
-1950 -3 -110 -2 -206 3 -213 6 -9 56 -12 217 -10 l209 3 2 235 c5 467 23
1047 37 1150 24 181 72 278 197 402 131 129 312 208 478 208 53 0 197 -26 253
-46 48 -17 57 -12 94 53 64 108 129 298 117 341 -8 31 -35 40 -167 58 -151 19
-363 17 -442 -6z"/>
</g>
</svg>
